<svg id="Layer_1" viewBox="0 0 24 24" xmlns="http://www.w3.org/2000/svg" data-name="Layer 1"><path d="m4 4c0-.553.448-1 1-1h1.812c1.039-1.79 2.973-3 5.188-3 2.967 0 5.431 2.167 5.91 5h-12.91c-.552 0-1-.447-1-1zm13.91 3c-.478 2.833-2.942 5-5.91 5s-5.431-2.167-5.91-5h11.819zm-3.91 6h-4c-4.411 0-8 3.589-8 8v2c0 .553.448 1 1 1h4.5c-.828 0-1.5-.672-1.5-1.5v-1.5h4s0 1 1 1h2s1 .105 1-1h4v1.5c0 .828-.672 1.5-1.5 1.5h4.5c.552 0 1-.447 1-1v-2c0-4.411-3.589-8-8-8zm4 6h-12v-1.5c0-.828.672-1.5 1.5-1.5h2.5s0 1 1 1h2s1 .105 1-1h2.5c.828 0 1.5.672 1.5 1.5z"/></svg>